<?xml version="1.0" encoding="utf-8"?>
<svg xmlns="http://www.w3.org/2000/svg" version="1.1" viewBox="5.842 2.456 88.778 93.018">
  <path d="m31.543 39.375 0.91797 0.625 0.87109 0.875 0.45703 0.5h0.003907c1.1641-0.80469 2.4062-1.4883 3.707-2.043-2.9766-3.375-7.1914-5.4062-11.688-5.625-4.4961-0.22266-8.8867 1.3867-12.18 4.4531-3.293 3.0703-5.2031 7.3398-5.3008 11.84v4.168c0 1.1055 0.44141 2.1641 1.2227 2.9453s1.8398 1.2188 2.9453 1.2188h12.5c0.007812-1.3984 0.16406-2.7969 0.45703-4.1641h-10.875c-1.1484 0-2.082-0.93359-2.082-2.0859v-2.082c-0.019531-0.20703-0.019531-0.41797 0-0.625 0.22656-3.2188 1.7266-6.2188 4.168-8.332 0.3125-0.31641 0.64453-0.60938 1-0.875l0.91797-0.625h-0.003907c0.53516-0.33594 1.0898-0.625 1.668-0.875 0.69922-0.30078 1.4258-0.53516 2.168-0.71094 1.7188-0.33203 3.4883-0.33203 5.207 0h0.20703c0.74219 0.17578 1.4688 0.41016 2.168 0.71094 0.53125 0.19141 1.0469 0.42969 1.543 0.70703z"/>
  <path d="m25 29.168c1.8945-0.011719 3.7617-0.45312 5.457-1.293-0.50781-1.3477-0.87109-2.7422-1.082-4.168-1.3086 0.83203-2.8242 1.2773-4.375 1.293-2.875 0.027344-5.5625-1.4297-7.1094-3.8555-1.543-2.4258-1.7305-5.4805-0.48828-8.0742 1.2422-2.5938 3.7344-4.3672 6.5938-4.6836 2.8555-0.32031 5.6797 0.85547 7.4609 3.1133 0.66406-1.3008 1.457-2.5312 2.375-3.668-2.9492-2.9531-7.1836-4.2383-11.277-3.4258-4.0977 0.8125-7.5156 3.6211-9.1133 7.4766-1.5977 3.8594-1.1641 8.2617 1.1562 11.734 2.3242 3.4727 6.2266 5.5547 10.402 5.5508z"/>
  <path d="m75 8.332c4.6016 0 8.332 3.7305 8.332 8.3359 0 4.6016-3.7305 8.332-8.332 8.332-1.4805-0.054688-2.918-0.5-4.168-1.293-0.21094 1.4258-0.57422 2.8203-1.082 4.168 4.2148 2.0469 9.2188 1.5664 12.965-1.2461 3.7461-2.8086 5.6055-7.4805 4.8203-12.098-0.78906-4.6172-4.0898-8.4062-8.5586-9.8203-4.4648-1.4102-9.3477-0.20313-12.645 3.1211 0.91797 1.1367 1.7148 2.3672 2.375 3.668 1.5273-1.9336 3.832-3.0938 6.293-3.168z"/>
  <path d="m50 37.5c4.4219 0 8.6602-1.7578 11.785-4.8828s4.8828-7.3633 4.8828-11.785c0-4.418-1.7578-8.6602-4.8828-11.785s-7.3633-4.8789-11.785-4.8789-8.6602 1.7539-11.785 4.8789-4.8828 7.3672-4.8828 11.785c0 4.4219 1.7578 8.6602 4.8828 11.785s7.3633 4.8828 11.785 4.8828zm0-29.168c5.0547 0 9.6133 3.0469 11.547 7.7188 1.9375 4.6719 0.86719 10.047-2.707 13.621-3.5742 3.5742-8.9531 4.6445-13.625 2.7109-4.668-1.9375-7.7148-6.4922-7.7148-11.551 0-6.9023 5.5977-12.5 12.5-12.5z"/>
  <path d="m70.832 54.168c-5.5234 0-10.824 2.1953-14.73 6.1016s-6.1016 9.207-6.1016 14.73 2.1953 10.824 6.1016 14.73 9.207 6.1016 14.73 6.1016c5.5273 0 10.824-2.1953 14.734-6.1016 3.9062-3.9062 6.1016-9.207 6.1016-14.73s-2.1953-10.824-6.1016-14.73c-3.9102-3.9062-9.207-6.1016-14.734-6.1016zm0 37.5c-4.418 0-8.6602-1.7578-11.785-4.8828s-4.8789-7.3633-4.8789-11.785 1.7539-8.6602 4.8789-11.785 7.3672-4.8828 11.785-4.8828c4.4219 0 8.6602 1.7578 11.785 4.8828s4.8828 7.3633 4.8828 11.785-1.7578 8.6602-4.8828 11.785-7.3633 4.8828-11.785 4.8828z"/>
  <path d="m47.293 66.668h-11.875c-1.1523 0-2.0859-0.93359-2.0859-2.0859v-6.25c0-6.9023 5.5977-12.5 12.5-12.5h8.3359c3.9492 0.019531 7.6562 1.9062 10 5.0859 1.4414-0.41016 2.9219-0.69141 4.4141-0.83594-1.4492-2.5469-3.5469-4.6641-6.0781-6.1406-2.5312-1.4805-5.4062-2.2617-8.3359-2.2734h-8.3359c-4.418 0-8.6602 1.7539-11.785 4.8789s-4.8789 7.3672-4.8789 11.785v8.3359c0 1.1055 0.4375 2.1641 1.2188 2.9453s1.8398 1.2188 2.9453 1.2188h12.875c0.24219-1.418 0.60156-2.8125 1.0859-4.1641z"/>
  <path d="m66.668 40.875c0.3125-0.31641 0.64453-0.60547 1-0.875l0.91797-0.625h-0.003907c0.53516-0.33203 1.0898-0.625 1.668-0.875 0.69922-0.29688 1.4258-0.53516 2.168-0.70703 1.7188-0.33594 3.4883-0.33594 5.207 0h0.20703c0.74219 0.17188 1.4688 0.41016 2.168 0.70703 0.58203 0.24219 1.1367 0.53516 1.668 0.875l0.91797 0.625 1 0.875h-0.003907c2.4414 2.1133 3.9414 5.1133 4.168 8.332 0.019531 0.375 0.019531 0.75 0 1.125v1.5859c0 0.55078-0.21875 1.082-0.60938 1.4727s-0.92188 0.60938-1.4727 0.60938h-0.79297c1.6445 1.0938 3.1562 2.3828 4.5 3.832 1.3867-0.69922 2.2695-2.1133 2.293-3.6641v-4.168c-0.097657-4.5-2.0078-8.7695-5.3008-11.84-3.293-3.0664-7.6836-4.6758-12.18-4.4531-4.4961 0.21875-8.7109 2.25-11.688 5.625 1.332 0.55078 2.6016 1.2344 3.793 2.043z"/>
  <path d="m67.168 77.957-4.4609-4.4141-2.9141 2.9141 4.4141 4.418 1.4609 1.5 1.5 1.457 14.707-14.707-2.918-2.957z"/>
</svg>