<?xml version="1.0" encoding="utf-8"?>
<svg xmlns="http://www.w3.org/2000/svg" version="1.1" x="0px" y="0px" viewBox="8.116 8.971 83.341 82.069" style="enable-background:new 0 0 100 100;">
  <path d="M11,90h78c0.553,0,1-0.448,1-1v-5.036c0-0.552-0.447-1-1-1h-7.794l0.029-9.577C86.149,72.901,90,68.746,90,63.707  c0-5.365-4.364-9.729-9.729-9.729c-2.217,0-4.257,0.754-5.896,2.008V49h1.466c0.553,0,1-0.448,1-1s-0.447-1-1-1h-1.466V17.012h0.956  c0.553,0,1-0.448,1-1V11c0-0.552-0.447-1-1-1H25.07c-0.553,0-1,0.448-1,1v5.011c0,0.552,0.447,1,1,1h0.596V47h-1.452  c-0.553,0-1,0.448-1,1s0.447,1,1,1h1.452v7.016c-1.645-1.273-3.701-2.039-5.937-2.039c-5.365,0-9.729,4.365-9.729,9.729  c0,5.015,3.814,9.153,8.694,9.672l-0.03,9.585H11c-0.553,0-1,0.448-1,1V89C10,89.553,10.447,90,11,90z M74.375,82.964V71.428  c1.38,1.056,3.043,1.758,4.86,1.951l-0.029,9.585H74.375z M27.666,56.812H58.75v15.22H27.666v-2.718  c1.124-1.587,1.792-3.519,1.792-5.607s-0.668-4.021-1.792-5.607V56.812z M27.666,74.032H58.75v8.932H27.666V74.032z M60.75,56.812  h11.625v1.232c-1.148,1.597-1.833,3.549-1.833,5.662s0.685,4.065,1.833,5.662v13.595H60.75V56.812z M80.271,55.978  c4.262,0,7.729,3.467,7.729,7.729c0,3.932-2.954,7.181-6.759,7.661l0.012-3.873l2.665-2.759c0.383-0.397,0.372-1.031-0.025-1.414  c-0.395-0.383-1.03-0.372-1.414,0.024l-1.216,1.26l0.008-2.74c0.002-0.552-0.444-1.001-0.997-1.003c-0.001,0-0.002,0-0.003,0  c-0.551,0-0.998,0.446-1,0.997l-0.009,2.867l-1.334-1.381c-0.382-0.396-1.017-0.408-1.413-0.024  c-0.397,0.384-0.408,1.017-0.024,1.414l2.763,2.86l-0.012,3.763c-3.776-0.506-6.699-3.74-6.699-7.652  C72.542,59.445,76.009,55.978,80.271,55.978z M26.07,12h48.261v3.011H26.07V12z M27.666,17.012h44.709V47H27.666V17.012z M72.375,49  v5.812H27.666V49H72.375z M12,63.707c0-4.262,3.468-7.729,7.729-7.729s7.729,3.467,7.729,7.729c0,3.932-2.954,7.181-6.758,7.661  l0.012-3.875l2.664-2.758c0.384-0.397,0.373-1.03-0.024-1.414c-0.396-0.383-1.03-0.372-1.413,0.024l-1.217,1.26l0.008-2.741  c0.002-0.552-0.444-1.001-0.997-1.003c-0.001,0-0.002,0-0.003,0c-0.551,0-0.998,0.446-1,0.997l-0.009,2.868l-1.335-1.382  c-0.381-0.396-1.018-0.408-1.413-0.024c-0.397,0.384-0.408,1.017-0.024,1.414l2.763,2.861L18.7,71.359  C14.924,70.853,12,67.619,12,63.707z M20.694,73.387c1.863-0.184,3.567-0.902,4.972-1.99v11.567h-5.002L20.694,73.387z M12,84.964  h76V88H12V84.964z"/>
  <path d="M34.775,33.875c-1.937,0-3.512,1.575-3.512,3.512v5.205c0,0.552,0.447,1,1,1h5.023c0.553,0,1-0.448,1-1v-5.205  C38.287,35.451,36.712,33.875,34.775,33.875z M36.287,41.592h-3.023v-4.205c0-0.833,0.678-1.512,1.512-1.512  s1.512,0.678,1.512,1.512V41.592z"/>
  <path d="M34.775,21.085c-1.937,0-3.512,1.575-3.512,3.512v5.205c0,0.552,0.447,1,1,1h5.023c0.553,0,1-0.448,1-1v-5.205  C38.287,22.661,36.712,21.085,34.775,21.085z M36.287,28.802h-3.023v-4.205c0-0.833,0.678-1.512,1.512-1.512  s1.512,0.678,1.512,1.512V28.802z"/>
  <path d="M44.925,33.875c-1.937,0-3.512,1.575-3.512,3.512v5.205c0,0.552,0.447,1,1,1h5.023c0.553,0,1-0.448,1-1v-5.205  C48.437,35.451,46.861,33.875,44.925,33.875z M46.437,41.592h-3.023v-4.205c0-0.833,0.678-1.512,1.512-1.512  s1.512,0.678,1.512,1.512V41.592z"/>
  <path d="M44.925,21.085c-1.937,0-3.512,1.575-3.512,3.512v5.205c0,0.552,0.447,1,1,1h5.023c0.553,0,1-0.448,1-1v-5.205  C48.437,22.661,46.861,21.085,44.925,21.085z M46.437,28.802h-3.023v-4.205c0-0.833,0.678-1.512,1.512-1.512  s1.512,0.678,1.512,1.512V28.802z"/>
  <path d="M55.075,33.875c-1.937,0-3.512,1.575-3.512,3.512v5.205c0,0.552,0.447,1,1,1h5.023c0.553,0,1-0.448,1-1v-5.205  C58.587,35.451,57.012,33.875,55.075,33.875z M56.587,41.592h-3.023v-4.205c0-0.833,0.678-1.512,1.512-1.512  s1.512,0.678,1.512,1.512V41.592z"/>
  <path d="M55.075,21.085c-1.937,0-3.512,1.575-3.512,3.512v5.205c0,0.552,0.447,1,1,1h5.023c0.553,0,1-0.448,1-1v-5.205  C58.587,22.661,57.012,21.085,55.075,21.085z M56.587,28.802h-3.023v-4.205c0-0.833,0.678-1.512,1.512-1.512  s1.512,0.678,1.512,1.512V28.802z"/>
  <path d="M65.225,33.875c-1.937,0-3.512,1.575-3.512,3.512v5.205c0,0.552,0.447,1,1,1h5.023c0.553,0,1-0.448,1-1v-5.205  C68.736,35.451,67.161,33.875,65.225,33.875z M66.736,41.592h-3.023v-4.205c0-0.833,0.678-1.512,1.512-1.512  s1.512,0.678,1.512,1.512V41.592z"/>
  <path d="M65.225,21.085c-1.937,0-3.512,1.575-3.512,3.512v5.205c0,0.552,0.447,1,1,1h5.023c0.553,0,1-0.448,1-1v-5.205  C68.736,22.661,67.161,21.085,65.225,21.085z M66.736,28.802h-3.023v-4.205c0-0.833,0.678-1.512,1.512-1.512  s1.512,0.678,1.512,1.512V28.802z"/>
  <path d="M69.062,71.099c-0.553,0-1,0.448-1,1v0.933c0,0.552,0.447,1,1,1s1-0.448,1-1v-0.933  C70.062,71.547,69.615,71.099,69.062,71.099z"/>
  <path d="M32.73,69.833c0.195,0.195,0.451,0.293,0.707,0.293s0.512-0.098,0.707-0.293c0.391-0.391,0.391-1.023,0-1.414l-2.125-2.125  c-0.391-0.391-1.023-0.391-1.414,0s-0.391,1.023,0,1.414L32.73,69.833z"/>
  <path d="M36.587,68.817c0.195,0.195,0.451,0.293,0.707,0.293s0.512-0.098,0.707-0.293c0.391-0.391,0.391-1.023,0-1.414l-5.037-5.037  c-0.391-0.391-1.023-0.391-1.414,0s-0.391,1.023,0,1.414L36.587,68.817z"/>
</svg>