<?xml version="1.0" encoding="utf-8"?>
<svg xmlns="http://www.w3.org/2000/svg" version="1.1" viewBox="-5 -10 91.085 74.795">
  <path d="M 24.761 28.277 L 24.761 22.425 L 20.312 22.425 C 19.777 22.425 19.273 22.175 18.952 21.746 L 13.831 15.746 L 0.831 15.746 C -0.333 15.75 -1.278 16.691 -1.29 17.855 L -1.29 52.445 L 4.948 35.254 C 6.359 31.375 9.07 28.254 13.648 28.254 L 24.761 28.277 Z M 66.312 55.156 L 64.421 60.367 L -0.587 60.367 L 8.113 36.367 C 9.042 33.797 10.613 31.617 13.632 31.617 L 68.03 31.617 C 69.456 31.511 70.886 31.668 72.253 32.086 C 73.983 32.664 74.151 33.586 73.561 35.215 L 66.421 54.906 L 66.331 55.156 L 66.312 55.156 Z M 20.05 43.765 C 19.116 43.765 18.363 43.007 18.363 42.074 C 18.363 41.14 19.116 40.386 20.05 40.386 L 54.773 40.386 C 55.707 40.386 56.461 41.14 56.461 42.074 C 56.461 43.007 55.707 43.765 54.773 43.765 L 20.05 43.765 Z M 20.05 53.324 C 19.116 53.324 18.363 52.57 18.363 51.636 C 18.363 50.703 19.116 49.945 20.05 49.945 L 54.773 49.945 C 55.707 49.945 56.461 50.703 56.461 51.636 C 56.461 52.57 55.707 53.324 54.773 53.324 L 20.05 53.324 Z M 36.972 -6.196 L 36.972 1.655 C 36.972 2.577 36.234 3.327 35.312 3.347 L 28.14 3.347 L 28.14 28.277 L 68.031 28.277 C 69.816 28.159 71.609 28.382 73.312 28.925 C 77.011 30.163 77.933 33.097 76.734 36.406 L 70.371 53.914 L 81.933 53.914 L 81.933 -6.195 L 36.972 -6.196 Z M 25.312 0.386 L 33.933 -8.915 C 34.261 -9.341 34.773 -9.587 35.312 -9.575 L 83.621 -9.575 C 84.543 -9.575 85.297 -8.837 85.312 -7.915 L 85.312 55.605 C 85.312 56.538 84.558 57.3 83.621 57.304 L 69.141 57.304 L 67.25 62.503 L 67.254 62.507 C 67.055 63.242 66.383 63.749 65.622 63.745 L -2.995 63.745 C -3.917 63.745 -4.671 63.007 -4.687 62.085 L -4.687 17.823 C -4.683 14.788 -2.222 12.331 0.813 12.323 L 14.575 12.323 C 15.106 12.323 15.61 12.581 15.923 13.015 L 21.052 19.015 L 24.763 19.015 L 24.763 1.656 C 24.755 1.171 24.958 0.71 25.313 0.386 L 25.312 0.386 Z M 33.574 -3.614 L 33.574 -0.075 L 30.312 -0.075 L 33.593 -3.614 L 33.574 -3.614 Z M 37.312 10.284 C 36.425 10.217 35.742 9.479 35.742 8.588 C 35.742 7.702 36.425 6.963 37.312 6.893 L 72.8 6.893 C 73.687 6.963 74.37 7.702 74.37 8.588 C 74.37 9.479 73.687 10.217 72.8 10.284 L 37.312 10.284 Z M 37.312 17.174 C 36.378 17.174 35.621 16.416 35.621 15.483 C 35.621 14.549 36.378 13.795 37.312 13.795 L 72.8 13.795 C 73.734 13.795 74.491 14.549 74.491 15.483 C 74.491 16.416 73.734 17.174 72.8 17.174 L 37.312 17.174 Z M 37.312 24.084 C 36.425 24.018 35.742 23.276 35.742 22.389 C 35.742 21.502 36.425 20.764 37.312 20.694 L 72.8 20.694 C 73.687 20.764 74.37 21.502 74.37 22.389 C 74.37 23.276 73.687 24.018 72.8 24.084 L 37.312 24.084 Z" fill-rule="evenodd"/>
</svg>