<?xml version="1.0" encoding="utf-8"?>
<svg xmlns="http://www.w3.org/2000/svg" viewBox="2.905 1.837 14.191 15.218" x="0px" y="0px">
  <path d="M16.76172,8.07422,15,6.99005V4a2.00229,2.00229,0,0,0-2-2H7A2.00229,2.00229,0,0,0,5,4V6.99005L3.23828,8.07422A.49848.49848,0,0,0,3,8.5V15a2.00229,2.00229,0,0,0,2,2H15a2.00229,2.00229,0,0,0,2-2V8.5A.49848.49848,0,0,0,16.76172,8.07422ZM16,8.7793v.42309l-1,.54389V8.16388ZM7,3h6a1.001,1.001,0,0,1,1,1v6.29016l-4,2.17566L6,10.29016V4A1.001,1.001,0,0,1,7,3ZM5,8.16388v1.5824L4,9.20239V8.7793ZM15,16H5a1.001,1.001,0,0,1-1-1V10.34149l6,3.263,6-3.263V15A1.001,1.001,0,0,1,15,16ZM11,8.5a.50065.50065,0,0,0-.5-.5h-1a1.5,1.5,0,0,1,0-3V4.5a.5.5,0,0,1,1,0V5h1a.5.5,0,0,1,0,1h-2a.5.5,0,0,0,0,1h1a1.5,1.5,0,0,1,0,3v.4458a.5.5,0,0,1-1,0V10h-1a.5.5,0,0,1,0-1h2A.50065.50065,0,0,0,11,8.5Z"/>
  <text x="0" y="35" fill="#000000" font-size="5px" font-weight="bold" font-family="'Helvetica Neue', Helvetica, Arial-Unicode, Arial, Sans-serif" style="white-space: pre;">Created by Sophia</text>
  <text x="0" y="40" fill="#000000" font-size="5px" font-weight="bold" font-family="'Helvetica Neue', Helvetica, Arial-Unicode, Arial, Sans-serif" style="white-space: pre;">from the Noun Project</text>
</svg>