<?xml version="1.0" encoding="utf-8"?>
<svg xmlns="http://www.w3.org/2000/svg" version="1.1" x="0px" y="0px" viewBox="-16.646 -16.432 98.078 98.302" enable-background="new -17.5 -17.5 100 100">
  <path d="M67.163,66.737C75.865,57.928,81.25,45.832,81.25,32.5S75.866,7.073,67.163-1.737c-0.062-0.079-0.118-0.161-0.191-0.234  c-0.073-0.073-0.155-0.129-0.234-0.191C57.928-10.866,45.832-16.25,32.5-16.25S7.073-10.866-1.737-2.164  c-0.08,0.062-0.162,0.119-0.235,0.192s-0.129,0.155-0.191,0.234C-10.866,7.073-16.25,19.168-16.25,32.5s5.384,25.428,14.087,34.237  c0.062,0.079,0.119,0.161,0.191,0.234c0.073,0.073,0.155,0.13,0.235,0.191C7.073,75.866,19.168,81.25,32.5,81.25  s25.428-5.385,34.237-14.087c0.079-0.063,0.161-0.118,0.234-0.191S67.101,66.816,67.163,66.737z M59.151,55.616  c-0.977-0.977-2.559-0.977-3.535,0s-0.977,2.559,0,3.535l5.982,5.982C54.442,71.521,45.183,75.597,35,76.174V67.69  c0-1.381-1.119-2.5-2.5-2.5S30,66.31,30,67.69v8.483c-10.183-0.577-19.442-4.652-26.599-11.04l5.982-5.982  c0.977-0.977,0.977-2.559,0-3.535c-0.976-0.977-2.56-0.977-3.535,0l-5.982,5.982C-6.521,54.442-10.597,45.183-11.174,35h8.483  c1.381,0,2.5-1.119,2.5-2.5S-1.31,30-2.69,30h-8.483c0.577-10.183,4.652-19.442,11.04-26.599l5.982,5.982  c0.488,0.488,1.128,0.732,1.768,0.732s1.28-0.244,1.768-0.732c0.977-0.976,0.977-2.559,0-3.535L3.401-0.134  C10.558-6.521,19.817-10.597,30-11.174v8.483c0,1.381,1.119,2.5,2.5,2.5S35-1.31,35-2.69v-8.483  c10.183,0.577,19.442,4.652,26.599,11.04l-5.982,5.982c-0.977,0.976-0.977,2.559,0,3.535c0.488,0.488,1.128,0.732,1.768,0.732  s1.279-0.244,1.768-0.732l5.982-5.982C71.521,10.558,75.597,19.817,76.174,30H67.69c-1.381,0-2.5,1.119-2.5,2.5s1.119,2.5,2.5,2.5  h8.483c-0.577,10.183-4.652,19.442-11.04,26.599L59.151,55.616z"/>
  <path d="M32.5,5.116c-1.381,0-2.5,1.119-2.5,2.5v23.367l-17.003,8.851c-1.225,0.638-1.701,2.147-1.063,3.372  c0.446,0.856,1.317,1.347,2.22,1.347c0.389,0,0.784-0.092,1.152-0.283l18.349-9.552c0.04-0.021,0.072-0.05,0.11-0.072  c0.077-0.046,0.151-0.093,0.222-0.146c0.064-0.048,0.125-0.099,0.184-0.151c0.061-0.055,0.117-0.11,0.171-0.17  c0.056-0.061,0.107-0.123,0.156-0.188c0.048-0.063,0.092-0.129,0.133-0.197c0.042-0.068,0.079-0.138,0.114-0.21  c0.035-0.073,0.066-0.147,0.095-0.225c0.028-0.076,0.052-0.153,0.072-0.231c0.02-0.075,0.036-0.151,0.049-0.229  c0.015-0.089,0.022-0.179,0.027-0.27C34.989,32.584,35,32.544,35,32.5V7.616C35,6.235,33.881,5.116,32.5,5.116z"/>
</svg>