<?xml version="1.0" encoding="utf-8"?>
<svg xmlns="http://www.w3.org/2000/svg" version="1.1" viewBox="-5 -10.231 90.855 88.174">
  <path d="M 52.191 21.705 C 51.171 20.686 49.761 20.057 48.222 20.057 L 6.234 20.053 C 3.144 20.053 0.613 22.592 0.613 25.674 L 0.613 52.553 C 0.613 55.643 3.152 58.174 6.234 58.174 L 8.433 58.174 C 8.543 58.186 8.644 58.193 8.754 58.205 C 10.195 58.385 11.222 59.693 11.054 61.147 L 10.164 68.217 L 20.754 58.908 C 21.234 58.459 21.875 58.178 22.582 58.178 L 48.223 58.178 C 51.313 58.178 53.844 55.639 53.844 52.557 L 53.844 25.678 C 53.844 24.139 53.215 22.729 52.196 21.709 L 52.191 21.705 Z M 59.14 48.084 L 59.14 52.553 C 59.14 58.565 54.23 63.475 48.218 63.475 L 23.57 63.475 L 8.422 76.795 C 6.633 78.365 3.633 76.975 4.094 74.264 L 5.453 63.455 C -0.219 63.044 -4.676 58.294 -4.676 52.564 L -4.676 25.685 C -4.676 19.673 0.235 14.763 6.246 14.763 L 14.965 14.763 L 14.965 2.122 C 14.965 -4.398 20.285 -9.718 26.805 -9.718 L 73.485 -9.718 C 80.005 -9.718 85.325 -4.398 85.325 2.122 L 85.325 32.001 C 85.325 38.321 80.306 43.54 74.024 43.829 L 75.583 56.188 C 76.044 58.899 73.032 60.297 71.255 58.719 L 59.165 48.09 L 59.14 48.084 Z M 48.222 14.752 L 20.242 14.752 L 20.242 2.111 C 20.242 -1.491 23.191 -4.44 26.793 -4.44 L 73.473 -4.44 C 77.074 -4.44 80.024 -1.491 80.024 2.111 L 80.024 31.99 C 80.024 35.592 77.074 38.541 73.473 38.541 L 71.024 38.541 C 70.914 38.553 70.813 38.56 70.703 38.572 C 69.262 38.752 68.235 40.06 68.403 41.513 L 69.492 50.154 L 59.14 41.052 L 59.14 25.681 C 59.14 19.67 54.23 14.759 48.218 14.759 L 48.222 14.752 Z M 22.992 32.443 C 22.992 33.904 21.801 35.091 20.344 35.091 C 18.883 35.091 17.695 33.9 17.695 32.443 C 17.695 27.181 21.965 22.912 27.226 22.912 C 34.625 22.912 39.226 31.021 35.367 37.373 C 34.469 38.861 33.168 40.084 31.617 40.885 C 30.457 41.486 29.867 42.924 29.867 44.205 L 29.867 45.935 C 29.867 47.396 28.676 48.584 27.219 48.584 C 25.758 48.584 24.57 47.392 24.57 45.935 L 24.57 44.205 C 24.57 40.974 26.219 37.756 29.18 36.217 C 31.75 34.877 32.23 31.455 30.219 29.447 C 27.559 26.787 22.988 28.678 22.988 32.447 L 22.992 32.443 Z M 24.582 52.634 C 24.582 51.173 25.773 49.986 27.23 49.986 C 28.691 49.986 29.879 51.165 29.879 52.658 C 29.879 54.146 28.687 55.306 27.23 55.306 C 25.769 55.306 24.582 54.126 24.582 52.634 Z" fill-rule="evenodd"/>
</svg>