<?xml version="1.0" encoding="utf-8"?>
<svg xmlns="http://www.w3.org/2000/svg" version="1.1" viewBox="24.526 16.758 51.179 66.029">
  <path d="m71.23 25.047h-11.527v-0.33594c0-1.0664-0.86719-1.9375-1.9375-1.9375h-1.6367c-0.44531-2.9805-3.0234-5.2734-6.125-5.2734-3.1016 0-5.6797 2.293-6.125 5.2734h-1.6367c-1.0664 0-1.9375 0.86719-1.9375 1.9375v0.33594h-11.527c-2.2383 0-4.0586 1.8203-4.0586 4.0586v49.344c0 2.2344 1.8203 4.0547 4.0586 4.0547h42.461c2.2383 0 4.0586-1.8203 4.0586-4.0547l-0.007813-49.344c0-2.2383-1.8203-4.0586-4.0586-4.0586zm-30.758 7.7266c0.30469 0.66797 0.98047 1.1367 1.7617 1.1367h15.531c0.78125 0 1.457-0.46875 1.7617-1.1367h8.0352v42.008l-35.125-0.003906v-42.008h8.0352zm1.668-8.0586c0-0.050782 0.042969-0.09375 0.09375-0.09375h2.4922c0.50781 0 0.92188-0.41406 0.92188-0.92188 0-2.3984 1.9531-4.3516 4.3516-4.3516s4.3516 1.9531 4.3516 4.3516c0 0.50781 0.41406 0.92188 0.92188 0.92188h2.4922c0.050781 0 0.09375 0.042968 0.09375 0.09375v7.2617c0 0.050782-0.042969 0.09375-0.09375 0.09375h-15.531c-0.050781 0-0.09375-0.042968-0.09375-0.09375zm31.305 53.734c0 1.2188-0.99219 2.2109-2.2148 2.2109l-42.461-0.003906c-1.2227 0-2.2148-0.99219-2.2148-2.2109v-49.34c0-1.2227 0.99219-2.2148 2.2148-2.2148h11.527v4.0391h-8.7852c-0.50781 0-0.92188 0.41406-0.92188 0.92187v43.852c0 0.50781 0.41406 0.92188 0.92188 0.92188h36.969c0.50781 0 0.92188-0.41406 0.92188-0.92188l0.003906-43.855c0-0.50781-0.41406-0.92188-0.92188-0.92188h-8.7852v-4.0391h11.527c1.2227 0 2.2148 0.99219 2.2148 2.2148v49.344zm-23.445-51.828c1.6133 0 2.9258-1.3125 2.9258-2.9258 0-1.6133-1.3125-2.9258-2.9258-2.9258s-2.9258 1.3125-2.9258 2.9258c0 1.6133 1.3125 2.9258 2.9258 2.9258zm0-4.0039c0.59766 0 1.082 0.48437 1.082 1.082 0 0.59766-0.48438 1.082-1.082 1.082s-1.082-0.48438-1.082-1.082c0-0.59766 0.48438-1.082 1.082-1.082zm-1.9414 40.941h-12.137c-0.50781 0-0.92188 0.41406-0.92188 0.92188v7.3047c0 0.50781 0.41406 0.92188 0.92188 0.92188h12.137c0.50781 0 0.92188-0.41406 0.92188-0.92188v-7.3047c0-0.50781-0.41406-0.92188-0.92188-0.92188zm-0.92188 7.3047h-10.293v-5.4609h10.293zm5.2617 1.8438h12.141c0.50781 0 0.92188-0.41406 0.92188-0.92188v-7.3047c0-0.50781-0.41406-0.92188-0.92188-0.92188h-12.141c-0.50781 0-0.92188 0.41406-0.92188 0.92188v7.3047c0 0.50781 0.41406 0.92188 0.92188 0.92188zm0.92187-7.3047h10.297v5.4609h-10.297zm-5.2617-13.188h-12.137c-0.50781 0-0.92188 0.41406-0.92188 0.92188v7.3047c0 0.50781 0.41406 0.92188 0.92188 0.92188h12.137c0.50781 0 0.92188-0.41406 0.92188-0.92188v-7.3047c0-0.50781-0.41406-0.92188-0.92188-0.92188zm-0.92188 7.3047h-10.293v-5.4609h10.293zm5.2617 1.8438h12.141c0.50781 0 0.92188-0.41406 0.92188-0.92188v-7.3047c0-0.50781-0.41406-0.92188-0.92188-0.92188h-12.141c-0.50781 0-0.92188 0.41406-0.92188 0.92188v7.3047c0 0.50781 0.41406 0.92188 0.92188 0.92188zm0.92187-7.3047h10.297v5.4609h-10.297zm-15.16 2.7305c0-0.50781 0.41406-0.92187 0.92188-0.92187h5.8203c0.50781 0 0.92188 0.41406 0.92188 0.92187 0 0.50781-0.41406 0.92188-0.92188 0.92188h-5.8203c-0.50781 0-0.92188-0.41406-0.92188-0.92188zm24.141 0c0 0.50781-0.41406 0.92188-0.92188 0.92188h-5.8164c-0.50781 0-0.92188-0.41406-0.92188-0.92188 0-0.50781 0.41406-0.92187 0.92188-0.92187h5.8164c0.50781 0 0.92188 0.41406 0.92188 0.92187zm-24.141 11.348c0-0.50781 0.41406-0.92188 0.92188-0.92188h5.8203c0.50781 0 0.92188 0.41406 0.92188 0.92188 0 0.50781-0.41406 0.92188-0.92188 0.92188h-5.8203c-0.50781 0-0.92188-0.41406-0.92188-0.92188zm24.141 0c0 0.50781-0.41406 0.92188-0.92188 0.92188h-5.8164c-0.50781 0-0.92188-0.41406-0.92188-0.92188 0-0.50781 0.41406-0.92188 0.92188-0.92188h5.8164c0.50781 0 0.92188 0.41406 0.92188 0.92188zm-26.152-18.125h11.688c0.20703 0 0.83594 0 1.2617-0.49219 0.39844-0.46094 0.36719-1.0508 0.30859-1.4492-0.24219-1.6875-1.0977-3.25-2.4062-4.3984-0.58984-0.51953-1.2617-0.9375-1.9805-1.2422 0.83594-0.80078 1.3594-1.9297 1.3594-3.1758 0-2.4258-1.9727-4.4023-4.4023-4.4023-2.4258 0-4.4023 1.9727-4.4023 4.4023 0 1.2539 0.52734 2.3867 1.375 3.1914-2.2891 0.99609-4.0039 3.0898-4.3672 5.625-0.058593 0.40234-0.09375 0.98828 0.30859 1.4531 0.42188 0.49219 1.0547 0.49219 1.2617 0.49219zm3.2656-10.758c0-1.4102 1.1484-2.5586 2.5586-2.5586s2.5586 1.1484 2.5586 2.5586-1.1484 2.5586-2.5586 2.5586-2.5586-1.1484-2.5586-2.5586zm2.5586 4.4023c3.1641 0 5.1758 2.2422 5.582 4.5117h-11.125c0.45703-2.5859 2.8086-4.5117 5.543-4.5117zm10.789 3.1992 5.2539 3.0312c0.14062 0.082031 0.30078 0.125 0.46094 0.125 0.16016 0 0.31641-0.042969 0.46094-0.125l5.25-3.0312c0.28516-0.16406 0.46094-0.46875 0.46094-0.79688v-6.0625c0-0.32812-0.17578-0.63281-0.46094-0.79688l-5.2461-3.0273c-0.28516-0.16406-0.63672-0.16406-0.92188 0l-5.25 3.0273c-0.28516 0.16406-0.46094 0.46875-0.46094 0.79688v6.0625c0 0.32812 0.17578 0.63281 0.46094 0.79688zm1.3828-6.3281 4.3281-2.4961 4.3281 2.4961v4.9961l-4.3281 2.5-4.3281-2.5zm7.543 1.2383-3.3438 3.75c-0.17188 0.19141-0.41406 0.30469-0.66797 0.30859h-0.019531c-0.25 0-0.48828-0.10156-0.66406-0.28125l-1.7109-1.7773c-0.35156-0.36719-0.34375-0.94922 0.023438-1.3008 0.36719-0.35156 0.94922-0.34375 1.3008 0.023437l1.0234 1.0586 2.6797-3.0078c0.33984-0.37891 0.92188-0.41406 1.3008-0.074218s0.41406 0.92188 0.074219 1.3008z"/>
</svg>