<?xml version="1.0" encoding="utf-8"?>
<svg xmlns="http://www.w3.org/2000/svg" data-name="Layer 1" viewBox="2.841 0 89.521 93.59" x="0px" y="0px">
  <path d="M27.428,49.267,19.677,61.285H58.532v-15.4H51.353L38.559,58.311a1.32,1.32,0,0,1-1.82,0ZM41.189,18.53V17.343H34.108V18.53Zm-9.649,0V16.1a1.268,1.268,0,0,1,1.284-1.247h9.649A1.264,1.264,0,0,1,43.752,16.1V18.53h5.214a1.27,1.27,0,0,1,1.285,1.247v6.509h-.006a1.249,1.249,0,0,1-.972,1.207l-.353.086V34.83a1.266,1.266,0,0,1-1.285,1.248H27.662a1.266,1.266,0,0,1-1.284-1.248V27.579l-.265-.066a1.254,1.254,0,0,1-1.066-1.227V19.777a1.269,1.269,0,0,1,1.284-1.247Zm-3.925,6.782.271.065c.057.011.119.026.176.041l9.587,2.308,9.586-2.308c.057-.015.12-.03.177-.041l.27-.065V21.025H27.615Zm9.727,4.9-8.4-2.02v5.393h17.4V28.2L37.976,30.21a1.331,1.331,0,0,1-.634,0ZM24.548,13a18.914,18.914,0,0,1,26.2,0,17.626,17.626,0,0,1,0,25.445,18.914,18.914,0,0,1-26.2,0,17.624,17.624,0,0,1,0-25.445Zm13.1-2.778a16.145,16.145,0,0,0-11.287,4.54,15.19,15.19,0,0,0,0,21.921,16.3,16.3,0,0,0,22.573,0,15.188,15.188,0,0,0,0-21.921,16.143,16.143,0,0,0-11.286-4.54ZM49.907,43.763l.016-.02,3.14-3.05a20.819,20.819,0,0,0,0-29.949h0a22.323,22.323,0,0,0-30.823,0l-.016.01a20.819,20.819,0,0,0,.01,29.944L37.649,55.665Zm4.014-.373H81.916a9.016,9.016,0,0,1,6.218,2.464,8.531,8.531,0,0,1,2.682,5.994l.276,11.387.218,9.3.026,1.081.006.03a1.246,1.246,0,0,1,0,.136v.081l.244,10.211A8.437,8.437,0,0,1,91,87.448a8.593,8.593,0,0,1-1.939,2.868,8.884,8.884,0,0,1-2.906,1.949,9.1,9.1,0,0,1-3.467.662H12.341a9.087,9.087,0,0,1-4.46-1.137c-.026-.015-.052-.025-.078-.04a8.686,8.686,0,0,1-3.249-3.292A8.244,8.244,0,0,1,4.8,79.681l11.416-17.7a1.184,1.184,0,0,1,.141-.212l9.222-14.3-5.162-5.015a23.261,23.261,0,0,1,0-33.474l.005,0a24.952,24.952,0,0,1,34.442-.015L54.9,9a23.263,23.263,0,0,1-.015,33.459ZM19.677,61.285,14.5,69.309l-2.085,3.227H25.458a1.266,1.266,0,0,1,1.284,1.247V90.432h9.02V73.783a1.265,1.265,0,0,1,1.284-1.247H88.752l-.207-8.756H71.4a1.268,1.268,0,0,1-1.284-1.247V45.884H61.1V62.533a1.268,1.268,0,0,1-1.284,1.247H18.07M10.813,75.031,6.96,81a6.054,6.054,0,0,0-.992,3.1,5.992,5.992,0,0,0,.821,3.161A6.177,6.177,0,0,0,9.108,89.6l.057.04a6.545,6.545,0,0,0,3.176.788H24.174v-15.4Zm27.517,15.4H82.686a6.427,6.427,0,0,0,2.474-.459,6.244,6.244,0,0,0,2.064-1.389,5.881,5.881,0,0,0,1.809-4.459l-.218-9.094H38.33ZM88.482,61.285l-.223-9.392a6.073,6.073,0,0,0-1.908-4.257,6.443,6.443,0,0,0-4.435-1.752H72.683v15.4Zm2.589,1.223.021.727"/>
</svg>